<svg xmlns="http://www.w3.org/2000/svg" xmlns:xlink="http://www.w3.org/1999/xlink" width="100" zoomAndPan="magnify" viewBox="0 0 75 74.999997" height="100" preserveAspectRatio="xMidYMid meet" version="1.0"><defs><clipPath id="f9eb87e82e"><path d="M 0.863281 0.863281 L 74.363281 0.863281 L 74.363281 74.363281 L 0.863281 74.363281 Z M 0.863281 0.863281 " clip-rule="nonzero"/></clipPath></defs><g clip-path="url(#f9eb87e82e)"><path fill="#001d4a" d="M 37.613281 0.863281 C 57.878906 0.863281 74.363281 17.347656 74.363281 37.613281 C 74.363281 57.875 57.878906 74.359375 37.613281 74.359375 C 17.347656 74.359375 0.863281 57.875 0.863281 37.613281 C 0.863281 17.347656 17.347656 0.863281 37.613281 0.863281 Z M 47.683594 23.195312 L 37.613281 33.265625 L 27.542969 23.195312 C 26.34375 21.992188 24.394531 21.992188 23.195312 23.195312 C 21.996094 24.394531 21.996094 26.339844 23.195312 27.542969 L 33.265625 37.613281 L 23.195312 47.683594 C 21.992188 48.882812 21.992188 50.832031 23.195312 52.03125 C 24.394531 53.234375 26.339844 53.230469 27.542969 52.03125 L 37.613281 41.960938 L 47.683594 52.03125 C 48.882812 53.230469 50.832031 53.230469 52.03125 52.03125 C 53.234375 50.828125 53.230469 48.882812 52.03125 47.683594 L 41.960938 37.613281 L 52.03125 27.542969 C 53.230469 26.34375 53.234375 24.394531 52.03125 23.195312 C 50.832031 21.992188 48.882812 21.996094 47.683594 23.195312 Z M 47.683594 23.195312 " fill-opacity="1" fill-rule="evenodd"/></g></svg>