<svg xmlns="http://www.w3.org/2000/svg" xmlns:xlink="http://www.w3.org/1999/xlink" width="100" zoomAndPan="magnify" viewBox="0 0 75 74.999997" height="100" preserveAspectRatio="xMidYMid meet" version="1.0"><defs><clipPath id="f306794c61"><path d="M 0.449219 0.449219 L 74.699219 0.449219 L 74.699219 74.699219 L 0.449219 74.699219 Z M 0.449219 0.449219 " clip-rule="nonzero"/></clipPath></defs><g clip-path="url(#f306794c61)"><path fill="#001d4a" d="M 37.574219 0.449219 C 36.359375 0.449219 35.144531 0.507812 33.9375 0.628906 C 32.726562 0.746094 31.523438 0.925781 30.332031 1.164062 C 29.140625 1.402344 27.960938 1.695312 26.796875 2.046875 C 25.632812 2.402344 24.492188 2.8125 23.367188 3.277344 C 22.246094 3.742188 21.148438 4.261719 20.074219 4.832031 C 19.003906 5.40625 17.960938 6.03125 16.949219 6.707031 C 15.9375 7.382812 14.964844 8.105469 14.023438 8.878906 C 13.082031 9.648438 12.183594 10.464844 11.324219 11.324219 C 10.464844 12.183594 9.648438 13.082031 8.878906 14.023438 C 8.105469 14.964844 7.382812 15.9375 6.707031 16.949219 C 6.03125 17.960938 5.40625 19.003906 4.832031 20.074219 C 4.261719 21.148438 3.742188 22.246094 3.277344 23.367188 C 2.8125 24.492188 2.402344 25.632812 2.046875 26.796875 C 1.695312 27.960938 1.402344 29.140625 1.164062 30.332031 C 0.925781 31.523438 0.746094 32.726562 0.628906 33.9375 C 0.507812 35.144531 0.449219 36.359375 0.449219 37.574219 C 0.449219 38.789062 0.507812 40.003906 0.628906 41.214844 C 0.746094 42.425781 0.925781 43.625 1.164062 44.816406 C 1.402344 46.011719 1.695312 47.1875 2.046875 48.351562 C 2.402344 49.515625 2.8125 50.660156 3.277344 51.78125 C 3.742188 52.90625 4.261719 54.003906 4.832031 55.074219 C 5.40625 56.148438 6.03125 57.191406 6.707031 58.199219 C 7.382812 59.210938 8.105469 60.1875 8.878906 61.125 C 9.648438 62.066406 10.464844 62.964844 11.324219 63.828125 C 12.183594 64.6875 13.082031 65.5 14.023438 66.273438 C 14.964844 67.042969 15.9375 67.769531 16.949219 68.441406 C 17.960938 69.117188 19.003906 69.742188 20.074219 70.316406 C 21.148438 70.890625 22.246094 71.410156 23.367188 71.875 C 24.492188 72.339844 25.632812 72.75 26.796875 73.101562 C 27.960938 73.453125 29.140625 73.75 30.332031 73.988281 C 31.523438 74.222656 32.726562 74.402344 33.9375 74.519531 C 35.144531 74.640625 36.359375 74.699219 37.574219 74.699219 C 38.789062 74.699219 40.003906 74.640625 41.214844 74.519531 C 42.425781 74.402344 43.625 74.222656 44.816406 73.988281 C 46.011719 73.75 47.1875 73.453125 48.351562 73.101562 C 49.515625 72.75 50.660156 72.339844 51.78125 71.875 C 52.90625 71.410156 54.003906 70.890625 55.074219 70.316406 C 56.148438 69.742188 57.191406 69.117188 58.199219 68.441406 C 59.210938 67.769531 60.1875 67.042969 61.125 66.273438 C 62.066406 65.5 62.964844 64.6875 63.828125 63.828125 C 64.6875 62.964844 65.5 62.066406 66.273438 61.125 C 67.042969 60.1875 67.769531 59.210938 68.441406 58.199219 C 69.117188 57.191406 69.742188 56.148438 70.316406 55.074219 C 70.890625 54.003906 71.410156 52.90625 71.875 51.78125 C 72.339844 50.660156 72.75 49.515625 73.101562 48.351562 C 73.453125 47.1875 73.75 46.011719 73.988281 44.816406 C 74.222656 43.625 74.402344 42.425781 74.519531 41.214844 C 74.640625 40.003906 74.699219 38.789062 74.699219 37.574219 C 74.699219 36.359375 74.640625 35.144531 74.519531 33.9375 C 74.402344 32.726562 74.222656 31.523438 73.988281 30.332031 C 73.75 29.140625 73.453125 27.960938 73.101562 26.796875 C 72.75 25.632812 72.339844 24.492188 71.875 23.367188 C 71.410156 22.246094 70.890625 21.148438 70.316406 20.074219 C 69.742188 19.003906 69.117188 17.960938 68.441406 16.949219 C 67.769531 15.9375 67.042969 14.964844 66.273438 14.023438 C 65.5 13.082031 64.6875 12.183594 63.828125 11.324219 C 62.964844 10.464844 62.066406 9.648438 61.125 8.878906 C 60.1875 8.105469 59.210938 7.382812 58.199219 6.707031 C 57.191406 6.03125 56.148438 5.40625 55.074219 4.832031 C 54.003906 4.261719 52.90625 3.742188 51.78125 3.277344 C 50.660156 2.8125 49.515625 2.402344 48.351562 2.046875 C 47.1875 1.695312 46.011719 1.402344 44.816406 1.164062 C 43.625 0.925781 42.425781 0.746094 41.214844 0.628906 C 40.003906 0.507812 38.789062 0.449219 37.574219 0.449219 Z M 58.558594 51.683594 L 16.234375 51.683594 C 15.890625 51.683594 15.558594 51.617188 15.242188 51.484375 C 14.921875 51.351562 14.640625 51.164062 14.398438 50.921875 C 14.152344 50.675781 13.964844 50.398438 13.835938 50.078125 C 13.703125 49.761719 13.636719 49.429688 13.636719 49.082031 C 13.636719 48.738281 13.703125 48.40625 13.835938 48.089844 C 13.964844 47.769531 14.152344 47.488281 14.398438 47.246094 C 14.640625 47.003906 14.921875 46.816406 15.242188 46.683594 C 15.558594 46.550781 15.890625 46.484375 16.234375 46.484375 L 58.558594 46.484375 C 58.902344 46.484375 59.234375 46.550781 59.550781 46.683594 C 59.871094 46.816406 60.152344 47.003906 60.394531 47.246094 C 60.640625 47.488281 60.828125 47.769531 60.957031 48.089844 C 61.089844 48.40625 61.15625 48.738281 61.15625 49.082031 C 61.15625 49.429688 61.089844 49.761719 60.957031 50.078125 C 60.828125 50.398438 60.640625 50.675781 60.394531 50.921875 C 60.152344 51.164062 59.871094 51.351562 59.550781 51.484375 C 59.234375 51.617188 58.902344 51.683594 58.558594 51.683594 Z M 58.558594 40.546875 L 16.234375 40.546875 C 15.890625 40.546875 15.558594 40.480469 15.242188 40.347656 C 14.921875 40.214844 14.640625 40.027344 14.398438 39.785156 C 14.152344 39.539062 13.964844 39.257812 13.835938 38.941406 C 13.703125 38.621094 13.636719 38.289062 13.636719 37.945312 C 13.636719 37.601562 13.703125 37.269531 13.835938 36.953125 C 13.964844 36.632812 14.152344 36.351562 14.398438 36.109375 C 14.640625 35.863281 14.921875 35.675781 15.242188 35.546875 C 15.558594 35.414062 15.890625 35.347656 16.234375 35.347656 L 58.558594 35.347656 C 58.902344 35.347656 59.234375 35.414062 59.550781 35.546875 C 59.871094 35.675781 60.152344 35.863281 60.394531 36.109375 C 60.640625 36.351562 60.828125 36.632812 60.957031 36.953125 C 61.089844 37.269531 61.15625 37.601562 61.15625 37.945312 C 61.15625 38.289062 61.089844 38.621094 60.957031 38.941406 C 60.828125 39.257812 60.640625 39.539062 60.394531 39.785156 C 60.152344 40.027344 59.871094 40.214844 59.550781 40.347656 C 59.234375 40.480469 58.902344 40.546875 58.558594 40.546875 Z M 58.558594 29.40625 L 16.234375 29.40625 C 15.890625 29.40625 15.558594 29.339844 15.242188 29.210938 C 14.921875 29.078125 14.640625 28.890625 14.398438 28.644531 C 14.152344 28.402344 13.964844 28.121094 13.835938 27.804688 C 13.703125 27.484375 13.636719 27.152344 13.636719 26.808594 C 13.636719 26.464844 13.703125 26.132812 13.835938 25.8125 C 13.964844 25.496094 14.152344 25.214844 14.398438 24.972656 C 14.640625 24.726562 14.921875 24.539062 15.242188 24.40625 C 15.558594 24.277344 15.890625 24.210938 16.234375 24.210938 L 58.558594 24.210938 C 58.902344 24.210938 59.234375 24.277344 59.550781 24.40625 C 59.871094 24.539062 60.152344 24.726562 60.394531 24.972656 C 60.640625 25.214844 60.828125 25.496094 60.957031 25.8125 C 61.089844 26.132812 61.15625 26.464844 61.15625 26.808594 C 61.15625 27.152344 61.089844 27.484375 60.957031 27.804688 C 60.828125 28.121094 60.640625 28.402344 60.394531 28.644531 C 60.152344 28.890625 59.871094 29.078125 59.550781 29.210938 C 59.234375 29.339844 58.902344 29.40625 58.558594 29.40625 Z M 58.558594 29.40625 " fill-opacity="1" fill-rule="nonzero"/></g></svg>